        <svg version="1.0" xmlns="http://www.w3.org/2000/svg"
 width="850pt" height="200pt" viewBox="0 0 1525.000000 855.000000"
 preserveAspectRatio="xMidYMid meet">

<g transform="translate(0.000000,855.000000) scale(0.100000,-0.100000)"
fill="#000000" stroke="none">
<path fill="red" d="M290 8536 c-77 -20 -140 -58 -190 -113 -64 -70 -92 -144 -92 -243 1
-84 17 -140 60 -203 32 -45 2380 -2382 2472 -2459 133 -111 294 -192 470 -236
l105 -27 3990 -5 3990 -5 77 -22 c181 -52 320 -133 449 -262 184 -185 273
-386 286 -641 13 -276 -79 -519 -272 -715 -150 -153 -272 -222 -505 -287 -35
-10 -646 -13 -2805 -18 l-2760 -5 -67 -33 c-77 -38 -138 -100 -177 -182 -22
-47 -26 -69 -26 -145 0 -165 -48 -108 847 -1001 989 -987 1605 -1596 1686
-1666 166 -144 385 -235 625 -259 146 -14 2687 -6 2857 10 721 67 1422 312
2010 704 528 352 989 834 1312 1372 432 717 645 1562 600 2380 -34 607 -161
1131 -413 1702 -295 669 -715 1203 -1262 1606 -614 453 -1302 702 -2092 757
-223 16 -11118 12 -11175 -4z"/>
</g>
</svg>